<?xml version="1.0" encoding="utf-8"?>
<!-- Generator: Adobe Illustrator 23.0.3, SVG Export Plug-In . SVG Version: 6.00 Build 0)  -->
<svg version="1.1" id="Layer_1" xmlns="http://www.w3.org/2000/svg" xmlns:xlink="http://www.w3.org/1999/xlink" x="0px" y="0px"
	 viewBox="0 0 512 512" style="enable-background:new 0 0 512 512;" xml:space="preserve">
<style type="text/css">
	.st0{fill:#4A5273;}
</style>
<path class="st0" d="M461.8,120.4h-3.9V88.2c0-27.7-22.5-50.2-50.2-50.2H213.2l-6-9.6C196.2,10.6,177.1,0,156.2,0H60.1
	C26.9,0,0,26.9,0,60.1v401.7C0,489.5,22.5,512,50.2,512h411.5c27.7,0,50.2-22.5,50.2-50.2V170.7C512,143,489.5,120.4,461.8,120.4z
	 M407.7,68c11.1,0,20.2,9,20.2,20.2v32.3H264.3L231.8,68H407.7z M30,60.1C30,43.5,43.5,30,60.1,30h96.1c10.5,0,20,5.3,25.6,14.2
	l47.3,76.2H30V60.1z M482,461.8c0,11.2-9.1,20.2-20.2,20.2H50.2c-11.2,0-20.2-9.1-20.2-20.2V150.4h431.8c11.2,0,20.2,9.1,20.2,20.2
	V461.8z"/>
<path class="st0" d="M256.3,182.5c-74.3,0-134.7,60.4-134.7,134.7c0,74.3,60.4,134.7,134.7,134.7S391,391.5,391,317.2
	C391,243,330.6,182.5,256.3,182.5z M256.3,421.9c-57.7,0-104.7-47-104.7-104.7s47-104.7,104.7-104.7S361,259.5,361,317.2
	C361,374.9,314,421.9,256.3,421.9z"/>
<path class="st0" d="M313.1,302.2h-41.8v-41.8c0-8.3-6.7-15-15-15s-15,6.7-15,15v41.8h-41.8c-8.3,0-15,6.7-15,15c0,8.3,6.7,15,15,15
	h41.8v41.8c0,8.3,6.7,15,15,15s15-6.7,15-15v-41.8h41.8c8.3,0,15-6.7,15-15C328.1,308.9,321.4,302.2,313.1,302.2z"/>
</svg>
