<?xml version="1.0" encoding="utf-8"?>
<!-- Generator: Adobe Illustrator 23.0.3, SVG Export Plug-In . SVG Version: 6.00 Build 0)  -->
<svg version="1.1" id="Layer_1" xmlns="http://www.w3.org/2000/svg" xmlns:xlink="http://www.w3.org/1999/xlink" x="0px" y="0px"
	 viewBox="0 0 511 511" style="enable-background:new 0 0 511 511;" xml:space="preserve">
<style type="text/css">
	.st0{fill:#4A5273;}
</style>
<path class="st0" d="M164.9,405.5H71.3c-8.3,0-15,6.7-15,15c0,8.3,6.7,15,15,15h93.6c8.3,0,15-6.7,15-15
	C179.9,412.2,173.2,405.5,164.9,405.5z"/>
<path class="st0" d="M71.3,390.7h46.8c8.3,0,15-6.7,15-15s-6.7-15-15-15H71.3c-8.3,0-15,6.7-15,15S63,390.7,71.3,390.7z"/>
<path class="st0" d="M459.7,116.7H311.7L267.2,45c-9.3-15-25.5-24-43.2-24h-76.4c-28,0-50.8,22.8-50.8,50.8v7.1h-47
	c-28,0-50.8,22.8-50.8,50.8v311.9c0,27.8,22.6,50.3,50.3,50.3h312.1c28,0,50.8-22.8,50.8-50.8v-7h47c28,0,50.8-22.8,50.8-50.8V167
	C510,139.3,487.4,116.7,459.7,116.7z M147.6,50.9H224c7.3,0,13.9,3.7,17.8,9.9l34.7,55.9H178l-8.6-13.8c-9.2-14.9-25.2-23.8-42.6-24
	v-7.1C126.7,60.2,136.1,50.9,147.6,50.9z M28.9,129.6c0-11.5,9.4-20.8,20.9-20.8h76.4c7.3,0,13.9,3.7,17.8,9.9l34.7,55.9H28.9V129.6
	z M382.3,441c0,11.5-9.4,20.9-20.9,20.9H49.3c-11.3,0-20.4-9.1-20.4-20.4v-237h332.9c11.3,0,20.4,9.1,20.4,20.4V441z M480.1,383.1
	c0,11.5-9.4,20.9-20.9,20.9h-47V224.9c0-27.8-22.6-50.3-50.3-50.3H213.9l-17.4-27.9h263.1c11.3,0,20.4,9.1,20.4,20.4V383.1z"/>
</svg>
